<?xml version="1.0" encoding="utf-8"?>
<svg viewBox="0 0 1080 1080" xmlns="http://www.w3.org/2000/svg">
  <g transform="matrix(0.1, 0, 0, -0.1, 0, 1080)" fill="#000000" stroke="none">
    <path d="M3780 9076 c0 -9 -6 -16 -14 -16 -7 0 -17 -10 -20 -22 -6 -22 -7 -22 -20 -5 -14 18 -15 18 -25 -2 -6 -11 -11 -29 -11 -40 0 -24 -18 -28 -26 -6 -10 25 -25 17 -20 -10 3 -15 -1 -28 -10 -33 -9 -5 -17 -15 -18 -23 -2 -8 -6 -32 -10 -54 -12 -63 -27 -105 -37 -105 -6 0 -7 -6 -3 -12 6 -10 4 -10 -7 -2 -18 14 -51 14 -46 0 4 -13 -14 -33 -28 -32 -5 1 -8 12 -6 25 2 15 -1 21 -8 17 -6 -4 -11 -16 -11 -27 0 -11 -4 -28 -9 -37 -5 -10 -12 -53 -16 -96 -3 -43 -12 -94 -20 -111 -7 -18 -19 -59 -25 -92 -7 -32 -15 -62 -18 -68 -6 -10 -12 -59 -15 -122 -1 -18 -4 -33 -8 -33 -3 0 -6 -6 -7 -12 0 -7 -5 -31 -11 -53 -5 -22 -12 -71 -15 -110 -3 -38 -9 -110 -12 -160 -4 -49 -8 -99 -9 -110 -1 -11 -14 -27 -28 -35 -20 -13 -24 -19 -15 -28 9 -9 8 -12 -4 -12 -9 0 -19 6 -22 13 -3 6 -4 3 -3 -8 1 -12 -5 -21 -18 -23 -29 -6 -65 -33 -65 -48 0 -8 5 -14 11 -14 8 0 8 -5 -1 -15 -13 -15 -5 -20 28 -16 21 3 13 -16 -10 -24 l-23 -8 23 -4 c12 -2 22 -9 22 -14 0 -5 9 -9 20 -9 24 0 27 -18 4 -27 -12 -4 -11 -8 8 -17 21 -11 23 -17 21 -84 -2 -40 -7 -91 -13 -115 -5 -23 -10 -73 -10 -112 0 -38 -4 -99 -10 -135 -25 -184 -43 -413 -55 -728 -3 -68 -7 -127 -9 -130 -8 -14 -27 -494 -30 -762 -1 -137 11 -427 20 -475 6 -34 13 -263 14 -460 0 -114 13 -290 24 -350 2 -11 10 -55 17 -99 l13 -78 -27 -24 c-16 -13 -36 -24 -46 -24 -10 0 -21 -3 -24 -7 -4 -3 -17 -7 -29 -9 -28 -3 -51 -7 -148 -29 -41 -8 -95 -18 -120 -21 -25 -3 -52 -8 -60 -11 -8 -3 -28 -7 -45 -10 -29 -4 -86 -16 -220 -43 -33 -7 -82 -21 -110 -31 -41 -15 -135 -40 -198 -53 -16 -4 -45 -15 -83 -31 -17 -7 -53 -17 -80 -21 -26 -4 -78 -19 -114 -34 -36 -15 -85 -30 -110 -34 -52 -8 -92 -31 -142 -83 -50 -51 -57 -110 -22 -202 14 -36 22 -71 20 -78 -3 -7 -1 -15 4 -18 6 -4 10 -19 10 -34 0 -34 71 -147 97 -155 49 -14 133 -24 178 -20 145 12 477 95 582 145 34 17 115 41 180 55 65 14 152 32 193 40 96 20 124 27 245 58 129 33 155 34 155 2 0 -13 7 -43 16 -67 9 -24 17 -51 19 -59 1 -8 7 -26 12 -40 6 -14 21 -61 34 -105 20 -69 78 -172 90 -161 2 2 5 -11 6 -30 1 -19 24 -76 52 -129 27 -52 55 -112 61 -133 12 -45 74 -121 125 -152 29 -18 44 -20 92 -15 53 5 116 31 155 63 10 8 23 12 31 9 7 -2 21 1 30 8 10 7 26 11 36 8 11 -3 39 16 82 55 l64 60 3 93 c3 84 0 105 -28 194 -37 115 -88 248 -99 255 -9 6 -31 56 -67 152 -17 45 -34 76 -40 74 -15 -6 -40 82 -28 94 5 5 38 16 74 25 90 22 454 139 570 182 166 63 373 152 435 188 33 19 103 57 155 85 52 27 115 61 140 75 25 14 87 45 138 70 258 124 516 258 543 281 8 8 19 14 22 14 4 0 40 20 80 44 111 67 159 95 197 114 19 9 39 23 43 30 4 6 15 12 22 12 31 0 568 347 660 427 50 43 53 45 93 68 17 11 32 23 32 27 0 4 6 8 13 8 12 0 138 91 194 140 100 88 152 130 158 130 4 0 20 12 36 28 15 15 81 77 146 137 249 232 404 390 410 417 3 14 10 25 17 23 6 -3 22 11 36 30 14 19 63 83 111 142 94 119 169 230 200 296 11 23 27 56 36 72 39 71 52 106 77 205 38 157 44 203 41 319 -5 179 -59 347 -156 477 -43 58 -188 184 -264 230 -139 83 -250 123 -524 188 -245 58 -659 103 -841 91 -52 -3 -413 -7 -803 -8 -599 -2 -706 -4 -702 -16 4 -11 3 -11 -9 -1 -15 11 -250 16 -305 5 -12 -2 -115 -7 -229 -10 -114 -4 -229 -9 -257 -11 -27 -2 -108 -6 -180 -9 -71 -3 -188 -10 -260 -15 -71 -5 -131 -7 -134 -5 -4 5 2 50 34 249 8 54 13 101 10 104 -2 3 -11 0 -19 -7 -12 -10 -15 -5 -21 28 -7 43 2 125 17 154 6 12 6 23 -1 31 -8 10 -7 17 5 27 14 12 14 14 -5 21 -27 10 -28 32 -1 25 11 -3 20 -2 20 3 0 12 -26 31 -33 23 -4 -3 -7 3 -7 15 0 13 6 22 15 22 8 0 15 -5 15 -11 0 -5 5 -7 11 -3 8 5 8 9 -1 14 -7 4 -9 13 -6 19 4 6 4 10 -1 9 -4 -2 -8 2 -8 7 0 6 3 9 8 7 4 -1 7 5 7 14 0 8 -5 12 -10 9 -17 -10 -33 47 -20 69 6 10 7 15 2 12 -11 -6 -21 40 -26 119 -6 105 -6 101 -16 85 -5 -8 -12 -11 -16 -7 -4 3 -1 13 6 22 10 12 10 15 -4 15 -12 0 -16 5 -11 19 7 23 -14 71 -32 71 -7 0 -13 -6 -13 -12 0 -8 -7 -5 -15 6 -14 19 -15 18 -24 -5 -7 -16 -10 -19 -10 -7 -1 21 -21 35 -21 14z m187 -881 c-8 -20 -37 -19 -37 1 0 10 6 14 15 10 8 -3 15 0 15 6 0 6 3 9 6 5 4 -3 4 -13 1 -22z m3 -39 c0 -3 -4 -8 -10 -11 -5 -3 -10 -1 -10 4 0 6 5 11 10 11 6 0 10 -2 10 -4z m-23 -138 c-3 -8 -6 -5 -6 6 -1 11 2 17 5 13 3 -3 4 -12 1 -19z m-17 8 c0 -3 -4 -8 -10 -11 -5 -3 -10 -1 -10 4 0 6 5 11 10 11 6 0 10 -2 10 -4z m2 -98 c-15 -15 -26 -4 -18 18 5 13 9 15 18 6 9 -9 9 -15 0 -24z m338 -23 c0 -8 -6 -15 -14 -15 -17 0 -28 14 -19 24 12 12 33 6 33 -9z m140 5 c0 -5 -4 -10 -10 -10 -5 0 -10 5 -10 10 0 6 5 10 10 10 6 0 10 -4 10 -10z m60 0 c0 -5 -7 -10 -16 -10 -8 0 -12 5 -9 10 3 6 10 10 16 10 5 0 9 -4 9 -10z m-92 -5 c-10 -11 -77 -14 -83 -5 -4 6 13 10 41 10 26 0 45 -2 42 -5z m-373 -34 c0 -8 -6 -16 -12 -18 -7 -3 -13 2 -13 10 0 9 -6 18 -12 21 -7 3 -2 4 12 3 14 -1 25 -8 25 -16z m1938 12 c-7 -2 -19 -2 -25 0 -7 3 -2 5 12 5 14 0 19 -2 13 -5z m64 1 c-3 -3 -12 -4 -19 -1 -8 3 -5 6 6 6 11 1 17 -2 13 -5z m-1967 -14 c0 -5 -4 -10 -10 -10 -5 0 -10 5 -10 10 0 6 5 10 10 10 6 0 10 -4 10 -10z m2243 3 c-7 -2 -21 -2 -30 0 -10 3 -4 5 12 5 17 0 24 -2 18 -5z m-653 -13 c-8 -5 -33 -9 -55 -8 l-40 1 40 7 c65 12 73 12 55 0z m428 3 c-10 -2 -28 -2 -40 0 -13 2 -5 4 17 4 22 1 32 -1 23 -4z m85 0 c-7 -2 -21 -2 -30 0 -10 3 -4 5 12 5 17 0 24 -2 18 -5z m-496 -29 c-3 -3 -12 -4 -19 -1 -8 3 -5 6 6 6 11 1 17 -2 13 -5z m370 -25 c-9 -15 -12 -15 -29 0 -24 20 -23 22 11 19 24 -2 27 -5 18 -19z m56 14 c-7 -2 -19 -2 -25 0 -7 3 -2 5 12 5 14 0 19 -2 13 -5z m-288 -13 c3 -5 -1 -10 -9 -10 -9 0 -16 5 -16 10 0 6 4 10 9 10 6 0 13 -4 16 -10z m-90 -10 c4 -6 -7 -10 -27 -9 -31 1 -32 1 -8 9 14 4 26 8 27 9 1 1 5 -3 8 -9z m295 -10 c0 -5 -4 -10 -10 -10 -5 0 -10 5 -10 10 0 6 5 10 10 10 6 0 10 -4 10 -10z m-153 -6 c-3 -3 -12 -4 -19 -1 -8 3 -5 6 6 6 11 1 17 -2 13 -5z m40 0 c-3 -3 -12 -4 -19 -1 -8 3 -5 6 6 6 11 1 17 -2 13 -5z m-130 -10 c-3 -3 -12 -4 -19 -1 -8 3 -5 6 6 6 11 1 17 -2 13 -5z m56 -41 c-7 -2 -21 -2 -30 0 -10 3 -4 5 12 5 17 0 24 -2 18 -5z m-66 -9 c-3 -3 -12 -4 -19 -1 -8 3 -5 6 6 6 11 1 17 -2 13 -5z m178 -24 c3 -5 0 -10 -9 -10 -8 0 -21 -3 -30 -6 -9 -3 -16 -1 -16 4 0 9 15 16 42 21 4 0 10 -3 13 -9z m68 3 c-7 -2 -21 -2 -30 0 -10 3 -4 5 12 5 17 0 24 -2 18 -5z m-138 -13 c8 -13 -5 -13 -25 0 -13 8 -13 10 2 10 9 0 20 -4 23 -10z m173 -47 c-15 -2 -42 -2 -60 0 -18 2 -6 4 27 4 33 0 48 -2 33 -4z m799 -49 c-3 -3 -12 -4 -19 -1 -8 3 -5 6 6 6 11 1 17 -2 13 -5z m-750 -10 c-4 -4 -44 -9 -89 -11 -46 -2 -92 -6 -102 -8 -11 -2 -15 0 -10 5 5 4 18 10 29 12 33 7 179 8 172 2z m-97 -44 c0 -5 -16 -10 -36 -10 -21 0 -33 -4 -29 -10 3 -5 -1 -10 -10 -10 -9 0 -13 5 -10 10 4 6 -11 11 -37 12 -39 1 -37 2 17 8 96 11 105 11 105 0z m-1062 -7 c-10 -2 -28 -2 -40 0 -13 2 -5 4 17 4 22 1 32 -1 23 -4z m1049 -19 c-3 -3 -12 -4 -19 -1 -8 3 -5 6 6 6 11 1 17 -2 13 -5z m-160 -20 c-3 -3 -12 -4 -19 -1 -8 3 -5 6 6 6 11 1 17 -2 13 -5z m159 -9 c-2 -5 -9 -9 -15 -7 -6 1 -10 -4 -8 -10 1 -7 -6 -13 -15 -12 -10 0 -36 1 -59 2 -28 1 -39 6 -36 15 2 6 12 11 22 9 9 -2 15 0 12 5 -3 4 19 8 49 8 34 1 53 -3 50 -10z m58 7 c6 -10 36 -9 54 2 6 4 20 2 29 -3 17 -10 16 -10 -2 -11 -12 0 -27 -6 -33 -12 -10 -10 -15 -10 -21 1 -6 9 -11 10 -15 3 -4 -6 -14 -8 -23 -5 -9 4 -14 2 -11 -3 3 -5 -7 -9 -24 -10 l-30 -1 24 23 c24 24 43 30 52 16z m141 -12 c3 -5 -1 -10 -9 -10 -9 0 -16 5 -16 10 0 6 4 10 9 10 6 0 13 -4 16 -10z m-1208 -6 c-3 -3 -12 -4 -19 -1 -8 3 -5 6 6 6 11 1 17 -2 13 -5z m-109 -11 c-16 -2 -40 -2 -55 0 -16 2 -3 4 27 4 30 0 43 -2 28 -4z m852 -11 c0 -5 -7 -9 -15 -9 -8 0 -15 4 -15 9 0 4 7 8 15 8 8 0 15 -4 15 -8z m610 4 c0 -2 -9 -6 -20 -9 -11 -3 -20 -1 -20 4 0 5 9 9 20 9 11 0 20 -2 20 -4z m-90 -16 c0 -5 -17 -9 -37 -9 l-38 2 35 7 c19 4 36 8 38 9 1 0 2 -3 2 -9z m-280 -4 c0 -3 -4 -8 -10 -11 -5 -3 -10 -1 -10 4 0 6 5 11 10 11 6 0 10 -2 10 -4z m63 -3 c-7 -2 -19 -2 -25 0 -7 3 -2 5 12 5 14 0 19 -2 13 -5z m115 0 c-15 -2 -42 -2 -60 0 -18 2 -6 4 27 4 33 0 48 -2 33 -4z m-1318 -13 c0 -5 -8 -10 -17 -10 -15 0 -16 2 -3 10 19 12 20 12 20 0z m178 5 c-8 -9 -167 -11 -162 -3 3 4 42 8 86 8 45 0 79 -2 76 -5z m342 -15 c0 -5 -4 -10 -10 -10 -5 0 -10 5 -10 10 0 6 5 10 10 10 6 0 10 -4 10 -10z m630 -1 c0 -5 -12 -9 -26 -9 -14 0 -23 4 -20 8 7 11 46 12 46 1z m30 1 c0 -5 -5 -10 -11 -10 -5 0 -7 5 -4 10 3 6 8 10 11 10 2 0 4 -4 4 -10z m45 0 c13 -6 15 -9 5 -9 -8 0 -22 4 -30 9 -18 12 -2 12 25 0z m-890 -10 c-11 -5 -38 -8 -60 -8 l-40 1 40 7 c22 4 49 7 60 8 l20 1 -20 -9z m-118 -16 c-3 -3 -12 -4 -19 -1 -8 3 -5 6 6 6 11 1 17 -2 13 -5z m-1665 -56 c-6 -6 -7 0 -4 19 5 21 7 23 10 9 2 -10 0 -22 -6 -28z m45 0 c-3 -7 -5 -2 -5 12 0 14 2 19 5 13 2 -7 2 -19 0 -25z m3178 18 c174 -12 247 -18 313 -26 40 -6 106 -10 145 -10 40 0 101 -5 137 -11 36 -6 105 -13 154 -16 57 -3 106 -12 135 -25 25 -11 71 -26 101 -34 125 -29 145 -36 221 -74 43 -22 79 -37 79 -34 0 4 9 -1 20 -11 11 -10 20 -15 20 -11 0 4 6 1 14 -6 8 -7 11 -17 8 -22 -3 -5 0 -6 5 -3 14 9 47 -29 38 -42 -3 -6 -1 -11 5 -11 6 0 9 -4 5 -9 -3 -5 -1 -13 5 -16 6 -4 8 -21 6 -38 -3 -18 -8 -51 -10 -75 -5 -40 -65 -180 -92 -212 -7 -8 -14 -24 -16 -35 -1 -11 -5 -22 -8 -25 -3 -3 -21 -25 -40 -50 -19 -25 -37 -47 -41 -50 -3 -3 -8 -10 -10 -17 -21 -63 -539 -627 -674 -733 -31 -25 -71 -57 -88 -73 -42 -36 -106 -84 -248 -188 -186 -135 -264 -187 -429 -287 -85 -51 -162 -99 -170 -106 -8 -7 -46 -30 -85 -51 -38 -21 -88 -49 -110 -63 -22 -14 -67 -39 -100 -57 -33 -17 -86 -48 -117 -68 -31 -20 -64 -37 -72 -37 -8 0 -16 -4 -18 -8 -3 -7 -156 -102 -164 -102 -2 0 -25 -14 -51 -30 -26 -16 -55 -30 -64 -30 -10 0 -24 -6 -31 -13 -7 -6 -40 -23 -73 -36 -33 -13 -77 -34 -97 -47 -21 -13 -40 -24 -44 -24 -3 0 -36 -14 -72 -31 -37 -17 -94 -41 -128 -54 -33 -12 -86 -34 -117 -49 -32 -14 -60 -26 -63 -26 -3 0 -47 -21 -97 -46 -51 -26 -130 -60 -177 -76 -47 -16 -110 -42 -140 -58 -30 -16 -79 -31 -109 -35 -30 -3 -62 -10 -71 -15 -30 -16 -167 -58 -222 -69 -29 -5 -60 -12 -69 -16 -11 -4 -19 0 -23 11 -4 10 -11 119 -17 243 -5 124 -14 287 -19 360 -5 74 -7 138 -4 143 3 4 0 45 -6 90 -5 46 -15 191 -20 323 -6 132 -15 335 -21 450 -8 171 -7 246 6 405 8 107 17 224 20 260 2 36 7 90 9 120 3 30 8 91 11 135 9 119 26 278 31 287 3 4 -3 8 -12 8 -16 0 -16 1 -1 18 20 21 23 40 39 213 6 77 15 145 19 151 7 11 112 20 229 19 33 0 41 2 30 10 -11 7 -6 7 15 2 17 -4 46 -8 65 -7 55 0 233 14 261 19 43 9 564 23 1112 30 148 2 271 6 274 9 6 6 600 -1 708 -8z m-3265 -123 c0 -47 -3 -83 -6 -80 -4 3 -6 41 -6 84 1 89 0 83 7 83 3 0 5 -39 5 -87z m-23 -245 c-3 -8 -6 -5 -6 6 -1 11 2 17 5 13 3 -3 4 -12 1 -19z m5243 -8 c0 -16 -4 -30 -8 -30 -5 0 -7 14 -4 30 2 17 6 30 8 30 2 0 4 -13 4 -30z m-463 -92 c-8 -24 -12 -28 -15 -15 -2 10 2 24 8 32 19 22 20 18 7 -17z m35 -34 c-5 -9 -7 -25 -5 -35 3 -11 0 -19 -6 -19 -8 0 -10 -11 -8 -29 3 -17 -1 -38 -10 -50 -8 -12 -11 -21 -6 -21 4 0 1 -5 -7 -10 -13 -8 -12 -10 3 -10 9 0 17 -6 17 -12 1 -7 9 2 19 21 10 19 20 30 23 25 2 -5 -10 -34 -29 -64 -31 -51 -46 -63 -22 -18 9 16 8 23 -2 29 -23 15 -32 10 -27 -14 4 -19 0 -23 -21 -22 -14 0 -26 5 -25 10 2 30 18 75 25 75 5 0 9 7 9 15 0 9 7 18 15 21 8 4 13 10 10 14 -3 5 -1 11 5 15 6 4 8 11 5 16 -4 5 -1 9 5 9 6 0 8 5 5 10 -3 6 -1 10 4 10 6 0 10 3 10 8 -4 21 2 42 11 42 7 0 8 -6 2 -16z m-54 -29 c-6 -14 -13 -24 -14 -22 -6 6 9 47 17 47 5 0 3 -11 -3 -25z m447 -35 c-4 -17 -9 -29 -12 -26 -3 2 -2 19 2 36 4 17 9 29 12 26 3 -2 2 -19 -2 -36z m-485 5 c-7 -9 -15 -13 -18 -10 -3 2 1 11 8 20 7 9 15 13 18 10 3 -2 -1 -11 -8 -20z m190 -15 c0 -5 -5 -10 -11 -10 -5 0 -7 5 -4 10 3 6 8 10 11 10 2 0 4 -4 4 -10z m-57 -15 c-3 -9 -8 -14 -10 -11 -3 3 -2 9 2 15 9 16 15 13 8 -4z m-149 -21 c-5 -21 -4 -25 6 -19 9 5 11 4 6 -3 -9 -15 -46 -16 -46 -2 0 6 4 10 9 10 5 0 13 9 16 20 9 30 16 24 9 -6z m172 -50 c-14 -28 -34 -59 -46 -69 -16 -15 -12 -2 17 58 21 42 41 73 46 68 4 -4 -3 -30 -17 -57z m71 14 c-3 -8 -6 -5 -6 6 -1 11 2 17 5 13 3 -3 4 -12 1 -19z m170 0 c-3 -8 -6 -5 -6 6 -1 11 2 17 5 13 3 -3 4 -12 1 -19z m20 0 c-3 -8 -6 -5 -6 6 -1 11 2 17 5 13 3 -3 4 -12 1 -19z m-335 -10 c-7 -7 -12 -8 -12 -2 0 14 12 26 19 19 2 -3 -1 -11 -7 -17z m369 -25 c-12 -20 -14 -14 -5 12 4 9 9 14 11 11 3 -2 0 -13 -6 -23z m-238 2 c-3 -9 -8 -14 -10 -11 -3 3 -2 9 2 15 9 16 15 13 8 -4z m186 -26 c-7 -19 -18 -41 -26 -49 -13 -13 -13 -11 -1 14 10 23 10 30 0 34 -6 2 -12 8 -12 13 0 6 4 8 9 5 5 -3 14 1 21 9 19 22 22 13 9 -26z m-5052 -26 c-3 -10 -5 -4 -5 12 0 17 2 24 5 18 2 -7 2 -21 0 -30z m268 17 c3 -5 1 -10 -4 -10 -6 0 -11 5 -11 10 0 6 2 10 4 10 3 0 8 -4 11 -10z m-308 -32 c-3 -7 -5 -2 -5 12 0 14 2 19 5 13 2 -7 2 -19 0 -25z m5049 5 c-10 -10 -19 5 -10 18 6 11 8 11 12 0 2 -7 1 -15 -2 -18z m-5079 -15 c-3 -7 -5 -2 -5 12 0 14 2 19 5 13 2 -7 2 -19 0 -25z m380 -15 c-3 -10 -5 -2 -5 17 0 19 2 27 5 18 2 -10 2 -26 0 -35z m-38 0 c0 -25 -1 -25 -8 -8 -5 11 -7 23 -4 28 8 14 13 7 12 -20z m4618 3 c-3 -8 -16 -20 -28 -27 l-22 -11 23 31 c22 32 38 36 27 7z m-4737 -36 c0 -5 -5 -10 -11 -10 -5 0 -7 5 -4 10 3 6 8 10 11 10 2 0 4 -4 4 -10z m4650 1 c0 -5 -7 -11 -14 -14 -10 -4 -13 -1 -9 9 6 15 23 19 23 5z m156 -23 c-9 -12 -16 -19 -16 -15 0 11 24 47 28 42 2 -2 -3 -14 -12 -27z m-5024 -8 c3 -16 1 -30 -4 -30 -4 0 -8 14 -8 30 0 17 2 30 4 30 2 0 6 -13 8 -30z m4629 -3 c-10 -9 -11 -8 -5 6 3 10 9 15 12 12 3 -3 0 -11 -7 -18z m281 1 c-7 -7 -12 -8 -12 -2 0 14 12 26 19 19 2 -3 -1 -11 -7 -17z m-4885 -35 c-3 -10 -5 -4 -5 12 0 17 2 24 5 18 2 -7 2 -21 0 -30z m240 -20 c-3 -10 -5 -4 -5 12 0 17 2 24 5 18 2 -7 2 -21 0 -30z m70 0 c-3 -10 -5 -4 -5 12 0 17 2 24 5 18 2 -7 2 -21 0 -30z m4684 4 c-10 -9 -11 -8 -5 6 3 10 9 15 12 12 3 -3 0 -11 -7 -18z m-88 -2 c-3 -9 -8 -14 -10 -11 -3 3 -2 9 2 15 9 16 15 13 8 -4z m-4898 -25 c3 -6 -1 -10 -9 -10 -11 0 -14 -9 -12 -37 2 -21 -1 -49 -6 -63 -6 -16 -6 -26 1 -28 8 -3 8 -10 0 -23 -5 -11 -7 -23 -4 -28 3 -5 -1 -11 -7 -14 -10 -3 -10 -7 -1 -18 16 -20 2 -41 -15 -23 -9 10 -9 14 -1 14 8 0 7 5 -2 17 -11 12 -11 17 -2 20 8 3 9 12 4 27 -6 14 -4 33 5 54 7 18 9 30 4 27 -12 -8 -23 13 -13 28 8 13 9 18 11 60 2 24 4 26 21 17 11 -5 23 -15 26 -20z m62 8 c-3 -8 -6 -5 -6 6 -1 11 2 17 5 13 3 -3 4 -12 1 -19z m-28 -57 c-2 -74 -19 -125 -19 -58 0 20 -4 37 -10 37 -5 0 -10 7 -10 15 0 8 7 15 15 15 10 0 15 10 15 30 0 17 2 30 5 30 3 0 5 -31 4 -69z m98 32 c-3 -10 -5 -4 -5 12 0 17 2 24 5 18 2 -7 2 -21 0 -30z m50 5 c-3 -8 -6 -5 -6 6 -1 11 2 17 5 13 3 -3 4 -12 1 -19z m98 13 c3 -5 2 -12 -3 -15 -5 -3 -9 1 -9 9 0 17 3 19 12 6z m4677 -23 c-7 -7 -12 -8 -12 -2 0 14 12 26 19 19 2 -3 -1 -11 -7 -17z m-4884 -101 c0 -37 -3 -67 -8 -67 -13 0 -17 31 -12 105 6 86 20 60 20 -38z m122 63 c0 -10 -4 -22 -10 -25 -6 -4 -10 7 -10 25 0 18 4 29 10 25 6 -3 10 -15 10 -25z m-292 -20 c-1 -21 -5 -37 -9 -35 -10 7 -9 75 2 75 5 0 8 -18 7 -40z m382 36 c0 -3 -4 -8 -10 -11 -5 -3 -10 -1 -10 4 0 6 5 11 10 11 6 0 10 -2 10 -4z m4660 0 c0 -3 -4 -8 -10 -11 -5 -3 -10 -1 -10 4 0 6 5 11 10 11 6 0 10 -2 10 -4z m-5023 -38 c-3 -8 -6 -5 -6 6 -1 11 2 17 5 13 3 -3 4 -12 1 -19z m80 -30 c-3 -8 -6 -5 -6 6 -1 11 2 17 5 13 3 -3 4 -12 1 -19z m4888 2 c-10 -11 -20 -18 -23 -15 -7 6 18 35 31 35 5 0 2 -9 -8 -20z m-4979 -35 c-9 -7 -16 -17 -16 -24 0 -6 -5 -11 -11 -11 -6 0 -8 7 -5 16 3 9 6 20 6 25 0 4 7 6 15 3 10 -4 15 0 16 12 0 14 2 15 6 5 3 -8 -2 -20 -11 -26z m361 -17 c-3 -8 -6 -5 -6 6 -1 11 2 17 5 13 3 -3 4 -12 1 -19z m33 -7 c0 -23 -9 -31 -26 -24 -11 4 -11 7 1 20 9 8 12 19 9 25 -4 7 -2 8 4 4 7 -4 12 -15 12 -25z m4550 25 c0 -3 -4 -8 -10 -11 -5 -3 -10 -1 -10 4 0 6 5 11 10 11 6 0 10 -2 10 -4z m-4833 -48 c-3 -8 -6 -5 -6 6 -1 11 2 17 5 13 3 -3 4 -12 1 -19z m4883 -1 c0 -2 -10 -12 -21 -23 -22 -19 -22 -19 -8 4 12 19 29 30 29 19z m-5010 -17 c0 -5 -2 -10 -4 -10 -3 0 -8 5 -11 10 -3 6 -1 10 4 10 6 0 11 -4 11 -10z m170 -5 c0 -8 -2 -15 -4 -15 -2 0 -6 7 -10 15 -3 8 -1 15 4 15 6 0 10 -7 10 -15z m-153 -47 c-2 -13 -4 -5 -4 17 -1 22 1 32 4 23 2 -10 2 -28 0 -40z m40 -45 c-3 -10 -5 -4 -5 12 0 17 2 24 5 18 2 -7 2 -21 0 -30z m380 -10 c-3 -10 -5 -2 -5 17 0 19 2 27 5 18 2 -10 2 -26 0 -35z m3923 30 c0 -5 -17 -21 -38 -37 l-37 -29 34 36 c36 39 41 42 41 30z m-4340 -39 c0 -19 -4 -33 -8 -30 -8 5 -4 66 4 66 2 0 4 -16 4 -36z m4190 -159 c-35 -35 -66 -62 -69 -60 -5 6 122 131 128 127 3 -1 -24 -32 -59 -67z m-4180 50 c0 -8 -2 -15 -4 -15 -2 0 -6 7 -10 15 -3 8 -1 15 4 15 6 0 10 -7 10 -15z m4205 -85 c-32 -33 -61 -58 -63 -55 -4 4 109 114 118 115 2 0 -22 -27 -55 -60z m75 -19 c0 -5 -7 -12 -16 -15 -14 -5 -15 -4 -4 9 14 17 20 19 20 6z m-30 -540 c0 -5 -7 -11 -15 -15 -15 -5 -20 5 -8 17 9 10 23 9 23 -2z m-102 -86 c-15 -14 -30 -25 -34 -25 -4 0 3 11 16 25 13 14 28 25 34 25 6 0 -1 -11 -16 -25z m-868 -39 c0 -4 -111 -84 -140 -100 -28 -17 4 11 69 58 62 45 71 50 71 42z m825 -6 c3 -6 -1 -13 -10 -16 -19 -8 -30 0 -20 15 8 14 22 14 30 1z m-795 -25 c0 -2 -20 -18 -45 -35 -25 -17 -45 -29 -45 -26 0 4 80 64 88 66 1 0 2 -2 2 -5z m710 -50 c-7 -8 -17 -15 -23 -15 -6 0 -2 7 9 15 25 19 30 19 14 0z m-825 -35 c-10 -11 -23 -20 -29 -20 -6 0 0 9 14 20 32 25 38 25 15 0z m-161 -12 c-16 -12 -35 -26 -41 -31 -7 -5 -13 -6 -13 -1 0 10 60 54 74 54 5 0 -4 -10 -20 -22z m910 -3 c-7 -17 -20 -20 -28 -6 -7 10 3 21 20 21 8 0 11 -6 8 -15z m-690 -20 c-10 -8 -23 -15 -28 -15 -6 0 -1 7 10 15 10 8 23 15 28 15 6 0 1 -7 -10 -15z m616 -20 c-19 -14 -36 -25 -39 -25 -11 1 50 50 62 50 6 0 -4 -11 -23 -25z m-1010 -64 c0 -5 -10 -11 -22 -14 -22 -6 -22 -6 -4 8 23 17 26 18 26 6z m920 5 c0 -3 -4 -8 -10 -11 -5 -3 -10 -1 -10 4 0 6 5 11 10 11 6 0 10 -2 10 -4z m-1090 -96 c-8 -5 -19 -10 -25 -10 -5 0 -3 5 5 10 8 5 20 10 25 10 6 0 3 -5 -5 -10z m-114 -115 c-8 -8 -21 -15 -28 -15 -8 1 -6 6 6 15 26 20 42 19 22 0z m9 -25 c-3 -5 -12 -10 -18 -10 -7 0 -6 4 3 10 19 12 23 12 15 0z m65 -5 c0 -2 -10 -9 -22 -15 -22 -11 -22 -10 -4 4 21 17 26 19 26 11z m-285 -34 c4 -8 -47 -41 -64 -41 -5 0 50 48 56 50 1 0 4 -4 8 -9z m109 -6 c-4 -8 -10 -15 -14 -15 -4 0 -10 -9 -13 -20 -3 -11 -9 -19 -14 -18 -4 2 -24 -7 -44 -20 -23 -14 -44 -20 -55 -15 -13 5 -16 3 -11 -10 6 -16 -8 -23 -35 -18 -5 0 -8 -3 -8 -9 0 -5 -7 -6 -17 -3 -10 4 -14 2 -9 -5 3 -6 -2 -16 -13 -21 -15 -8 -20 -7 -25 5 -3 8 -2 13 2 10 5 -3 14 4 22 14 8 10 17 17 22 14 4 -3 20 6 35 21 16 14 36 28 46 31 20 6 22 20 5 28 -7 3 -1 3 13 0 16 -3 41 4 70 19 24 14 45 25 46 26 1 1 0 -6 -3 -14z m-190 -46 c-4 -8 1 -9 17 -5 17 5 20 4 9 -3 -8 -5 -28 -7 -43 -4 -21 4 -25 8 -15 14 19 12 40 11 32 -2z m167 -39 c38 20 16 2 -42 -35 -52 -32 -69 -32 -69 0 0 6 5 3 10 -5 7 -12 12 -12 22 -2 9 9 9 12 -1 12 -7 0 -9 5 -5 11 4 8 9 7 15 -2 6 -11 11 -11 21 -1 9 9 9 12 -2 12 -13 0 -13 2 0 10 9 6 17 5 21 -2 4 -7 14 -6 30 2z m-222 -14 c-2 -2 -15 -9 -29 -15 -24 -11 -24 -11 -6 3 16 13 49 24 35 12z m205 -48 c-39 -31 -134 -81 -141 -74 -3 3 3 9 13 12 10 4 28 15 39 24 29 25 108 70 114 65 2 -3 -9 -15 -25 -27z m-264 17 c0 -2 -15 -12 -32 -20 l-33 -16 24 21 c22 19 41 26 41 15z m385 -5 c-3 -5 -12 -10 -18 -10 -7 0 -6 4 3 10 19 12 23 12 15 0z m-355 -30 c-20 -13 -33 -13 -25 0 3 6 14 10 23 10 15 0 15 -2 2 -10z m390 -15 c0 -2 -17 -13 -38 -24 -21 -11 -44 -27 -51 -35 -8 -9 -18 -16 -24 -16 -16 0 22 35 63 58 36 21 50 26 50 17z m-510 -9 c0 -3 -4 -8 -10 -11 -5 -3 -10 -1 -10 4 0 6 5 11 10 11 6 0 10 -2 10 -4z m650 -31 c-7 -8 -17 -15 -22 -15 -6 0 -5 7 2 15 7 8 17 15 22 15 6 0 5 -7 -2 -15z m-120 1 c0 -2 -7 -7 -16 -10 -8 -3 -12 -2 -9 4 6 10 25 14 25 6z m-345 -16 c3 -5 1 -10 -4 -10 -6 0 -11 5 -11 10 0 6 2 10 4 10 3 0 8 -4 11 -10z m400 0 c-3 -5 -11 -10 -16 -10 -6 0 -7 5 -4 10 3 6 11 10 16 10 6 0 7 -4 4 -10z m155 7 c0 -2 -10 -12 -22 -23 l-23 -19 19 23 c18 21 26 27 26 19z m-370 -42 c0 -2 -10 -10 -22 -16 -21 -11 -22 -11 -9 4 13 16 31 23 31 12z m200 -5 c0 -5 -5 -10 -11 -10 -5 0 -7 5 -4 10 3 6 8 10 11 10 2 0 4 -4 4 -10z m-50 -4 c0 -2 -7 -7 -16 -10 -8 -3 -12 -2 -9 4 6 10 25 14 25 6z m-40 -23 c0 -5 -12 -13 -26 -20 -26 -12 -26 -12 -9 7 18 20 35 26 35 13z m-90 -53 c0 -5 -5 -10 -11 -10 -5 0 -7 5 -4 10 3 6 8 10 11 10 2 0 4 -4 4 -10z m-1 -23 c14 4 14 3 1 -6 -8 -7 -23 -16 -33 -22 -16 -9 -17 -8 -8 9 6 11 9 22 7 24 -1 3 1 2 7 -2 5 -5 17 -6 26 -3z m-49 -11 c0 -3 -4 -8 -10 -11 -5 -3 -10 -1 -10 4 0 6 5 11 10 11 6 0 10 -2 10 -4z m55 -66 c-3 -5 -12 -10 -18 -10 -7 0 -6 4 3 10 19 12 23 12 15 0z m-95 -24 c0 -2 -7 -7 -16 -10 -8 -3 -12 -2 -9 4 6 10 25 14 25 6z m-2023 -168 c-3 -8 -6 -5 -6 6 -1 11 2 17 5 13 3 -3 4 -12 1 -19z m-427 -277 c0 -5 -11 -11 -25 -13 -14 -3 -25 -3 -25 -1 0 3 34 19 48 22 1 1 2 -3 2 -8z m-161 -5 c-2 -2 -15 -9 -29 -16 -23 -12 -24 -12 -11 3 7 10 20 17 29 17 8 0 13 -2 11 -4z m31 0 c0 -3 -4 -8 -10 -11 -5 -3 -10 -1 -10 4 0 6 5 11 10 11 6 0 10 -2 10 -4z m50 -16 c-34 -11 -60 -11 -35 0 11 5 29 8 40 8 16 0 15 -2 -5 -8z m-185 -20 c-27 -12 -35 -12 -35 0 0 6 12 10 28 9 24 0 25 -1 7 -9z m72 -6 c-3 -3 -12 -4 -19 -1 -8 3 -5 6 6 6 11 1 17 -2 13 -5z m163 -4 c0 -5 -7 -10 -16 -10 -8 0 -12 5 -9 10 3 6 10 10 16 10 5 0 9 -4 9 -10z m-43 -14 c8 -8 -105 -36 -121 -30 -9 3 -16 1 -16 -4 0 -6 -17 -14 -37 -17 -21 -3 -45 -9 -53 -13 -8 -5 -30 -3 -49 4 l-35 11 52 13 c29 6 54 15 57 20 2 4 29 7 59 6 30 -1 52 2 50 6 -3 4 2 5 10 2 9 -3 16 -2 16 4 0 9 58 7 67 -2z m-410 -62 c-3 -3 -12 -4 -19 -1 -8 3 -5 6 6 6 11 1 17 -2 13 -5z m268 -4 c3 -5 -1 -10 -10 -10 -9 0 -13 5 -10 10 3 6 8 10 10 10 2 0 7 -4 10 -10z m6 -15 c23 5 31 4 24 -3 -9 -10 -114 -33 -139 -31 -6 0 7 6 29 14 22 7 33 13 25 14 -13 1 -13 2 0 11 9 6 17 5 21 -2 4 -6 20 -7 40 -3z m89 5 c0 -5 -7 -7 -15 -4 -8 4 -15 8 -15 10 0 2 7 4 15 4 8 0 15 -4 15 -10z m-363 -16 c-3 -3 -12 -4 -19 -1 -8 3 -5 6 6 6 11 1 17 -2 13 -5z m443 2 c0 -3 -4 -8 -10 -11 -5 -3 -10 -1 -10 4 0 6 5 11 10 11 6 0 10 -2 10 -4z m-40 -16 c0 -5 -6 -10 -12 -11 -7 0 -22 -2 -33 -5 -100 -22 -169 -29 -162 -16 6 9 61 20 130 26 15 2 30 6 34 9 10 11 43 8 43 -3z m-437 -37 c-7 -2 -19 -2 -25 0 -7 3 -2 5 12 5 14 0 19 -2 13 -5z m344 -49 c-3 -3 -12 -4 -19 -1 -8 3 -5 6 6 6 11 1 17 -2 13 -5z m-160 -20 c-3 -3 -12 -4 -19 -1 -8 3 -5 6 6 6 11 1 17 -2 13 -5z m46 -1 c-7 -2 -19 -2 -25 0 -7 3 -2 5 12 5 14 0 19 -2 13 -5z m140 -30 c-7 -2 -19 -2 -25 0 -7 3 -2 5 12 5 14 0 19 -2 13 -5z m-67 -12 c-4 -5 -27 -9 -53 -8 -33 0 -41 3 -28 8 28 11 87 11 81 0z m-113 -18 c-7 -2 -19 -2 -25 0 -7 3 -2 5 12 5 14 0 19 -2 13 -5z m20 -40 c-7 -2 -19 -2 -25 0 -7 3 -2 5 12 5 14 0 19 -2 13 -5z m197 -7 c0 -11 -19 -15 -25 -6 -3 5 1 10 9 10 9 0 16 -2 16 -4z m36 -27 c-32 -9 -42 -6 -32 9 3 5 18 7 33 4 l28 -5 -29 -8z m-117 7 c-12 -10 -60 -16 -54 -6 3 5 18 10 32 10 15 0 24 -2 22 -4z m241 -16 c0 -5 -10 -10 -22 -9 -22 0 -22 1 -3 9 11 5 21 9 23 9 1 1 2 -3 2 -9z m-290 -14 c0 -3 -4 -8 -10 -11 -5 -3 -10 -1 -10 4 0 6 5 11 10 11 6 0 10 -2 10 -4z m-60 -16 c-20 -13 -33 -13 -25 0 3 6 14 10 23 10 15 0 15 -2 2 -10z m257 4 c-3 -3 -12 -4 -19 -1 -8 3 -5 6 6 6 11 1 17 -2 13 -5z m-357 -14 c0 -5 -12 -10 -26 -10 -14 0 -23 4 -19 10 3 6 15 10 26 10 10 0 19 -4 19 -10z m750 -16 c0 -8 -5 -12 -10 -9 -6 4 -8 11 -5 16 9 14 15 11 15 -7z m-43 -26 c-3 -8 -6 -5 -6 6 -1 11 2 17 5 13 3 -3 4 -12 1 -19z m-740 -4 c-3 -3 -12 -4 -19 -1 -8 3 -5 6 6 6 11 1 17 -2 13 -5z m690 -9 c0 -8 -4 -12 -9 -9 -4 3 -8 9 -8 15 0 5 4 9 8 9 5 0 9 -7 9 -15z m-1657 -27 c0 -13 -23 -5 -28 10 -2 7 2 10 12 6 9 -3 16 -11 16 -16z m1037 16 c-3 -3 -12 -4 -19 -1 -8 3 -5 6 6 6 11 1 17 -2 13 -5z m-104 -11 c-7 -2 -19 -2 -25 0 -7 3 -2 5 12 5 14 0 19 -2 13 -5z m897 -615 c0 -6 -6 -5 -15 2 -8 7 -15 14 -15 16 0 2 7 1 15 -2 8 -4 15 -11 15 -16z m286 -123 c1 -9 -6 -15 -17 -15 -17 0 -17 3 -7 20 13 20 21 19 24 -5z"/>
    <path d="M3475 8789 c-4 -6 -5 -12 -2 -15 2 -3 7 2 10 11 7 17 1 20 -8 4z"/>
    <path d="M55 5500 c3 -5 8 -10 11 -10 2 0 4 5 4 10 0 6 -5 10 -11 10 -5 0 -7 -4 -4 -10z"/>
    <path d="M10145 4400 c-3 -5 1 -10 10 -10 9 0 13 5 10 10 -3 6 -8 10 -10 10 -2 0 -7 -4 -10 -10z"/>
    <path d="M2270 2184 c0 -8 5 -12 10 -9 6 4 8 11 5 16 -9 14 -15 11 -15 -7z"/>
    <path d="M2170 2100 c0 -5 4 -10 9 -10 6 0 13 5 16 10 3 6 -1 10 -9 10 -9 0 -16 -4 -16 -10z"/>
    <path d="M1680 1615 c-8 -9 -8 -15 -2 -15 12 0 26 19 19 26 -2 2 -10 -2 -17 -11z"/>
  </g>
</svg>